<svg width="132" height="130" viewBox="0 0 132 130" fill="none" xmlns="http://www.w3.org/2000/svg">
<path d="M29.9834 0C29.9834 0 46.3166 28.952 55.3385 31.6879C64.3605 34.4238 90.5877 24.9954 90.5877 24.9954C90.5877 24.9954 64.0267 42.9683 60.695 54.4858C57.3633 66.0033 71.5377 108.524 71.5377 108.524C71.5377 108.524 52.2079 64.9428 44.5618 61.3527C36.9157 57.7626 7.5456 71.7362 7.5456 71.7362C7.5456 71.7362 33.5418 53.558 36.2215 45.595C38.9013 37.6319 29.9834 0 29.9834 0Z" fill="#FFFF72"/>
<path d="M97.8926 71C97.8926 71 105.46 84.4143 109.64 85.6819C113.82 86.9496 125.972 82.5811 125.972 82.5811C125.972 82.5811 113.666 90.9085 112.122 96.2449C110.579 101.581 117.146 121.282 117.146 121.282C117.146 121.282 108.19 101.09 104.647 99.4265C101.105 97.7631 87.4965 104.237 87.4965 104.237C87.4965 104.237 99.5413 95.815 100.783 92.1255C102.024 88.436 97.8926 71 97.8926 71Z" fill="#FFFF72"/>
<path d="M13.8926 79C13.8926 79 21.4602 92.4143 25.6404 93.6819C29.8205 94.9496 41.9723 90.5811 41.9723 90.5811C41.9723 90.5811 29.6659 98.9085 28.1222 104.245C26.5785 109.581 33.1459 129.282 33.1459 129.282C33.1459 129.282 24.1899 109.09 20.6472 107.427C17.1045 105.763 3.49648 112.237 3.49648 112.237C3.49648 112.237 15.5413 103.815 16.7829 100.126C18.0245 96.436 13.8926 79 13.8926 79Z" fill="#FFFF72"/>
</svg>
