<svg width="305" height="318" viewBox="0 0 305 318" fill="none" xmlns="http://www.w3.org/2000/svg">
<path d="M258.662 40.1167C258.662 40.1167 224.193 93.2621 227.539 110.913C230.885 128.564 269.964 164.529 269.964 164.529C269.964 164.529 216.161 135.545 193.77 140.088C171.379 144.632 112.09 206.112 112.09 206.112C112.09 206.112 168.617 134.989 167.929 118.908C167.24 102.826 117.71 65.5669 117.71 65.5669C117.71 65.5669 171.361 93.4157 187.174 90.9098C202.988 88.404 258.662 40.1167 258.662 40.1167Z" fill="#FFFF72"/>
<path d="M198.726 217.483C198.726 217.483 182.755 242.107 184.305 250.285C185.856 258.464 203.962 275.127 203.962 275.127C203.962 275.127 179.034 261.698 168.659 263.803C158.285 265.908 130.815 294.394 130.815 294.394C130.815 294.394 157.005 261.441 156.686 253.99C156.367 246.538 133.418 229.275 133.418 229.275C133.418 229.275 158.276 242.178 165.603 241.017C172.93 239.856 198.726 217.483 198.726 217.483Z" fill="#FFFF72"/>
<path d="M111.048 82.6973C111.048 82.6973 95.0772 107.321 96.6275 115.499C98.1778 123.678 116.284 140.341 116.284 140.341C116.284 140.341 91.3559 126.912 80.9814 129.017C70.6068 131.122 43.1369 159.608 43.1369 159.608C43.1369 159.608 69.3275 126.655 69.0084 119.203C68.6893 111.752 45.7407 94.4891 45.7407 94.4891C45.7407 94.4891 70.5987 107.392 77.9255 106.231C85.2522 105.07 111.048 82.6973 111.048 82.6973Z" fill="#FFFF72"/>
</svg>
